<svg id="Capa_1" enable-background="new 0 0 512 512" height="512" viewBox="0 0 512 512" width="512" xmlns="http://www.w3.org/2000/svg"><g><path d="m276.95 452h76.1c10.4-17.92 29.79-30 51.95-30h-180c22.16 0 41.55 12.08 51.95 30z"/><path d="m456.95 452h23.05v-30h-75c22.16 0 41.55 12.08 51.95 30z"/><path d="m156.12 394.91c11.04-8.13 18.79-19.86 22.09-32.91h299.83l33.96-242h-376.806l-15.223-76.621c-.855-24.066-20.7-43.379-44.971-43.379h-75v30h75c8.271 0 15 6.729 15 15v1.476l59.98 301.9c-.208 8.805-4.519 17.127-11.64 22.375-34.785 25.603-16.776 81.249 26.66 81.249h8.05c10.4-17.92 29.79-30 51.95-30h-60c-14.444 0-20.523-18.53-8.88-27.09zm173.88-122.91v-122h60v122zm-30 0h-60v-122h60zm160.38 0h-40.38v-122h57.5zm-250.38-122v122h-44.607l-24.238-122z"/><circle cx="225" cy="482" r="30"/><circle cx="405" cy="482" r="30"/></g></svg>